<?xml version="1.0" encoding="utf-8"?>
<!-- Generator: Adobe Illustrator 23.0.4, SVG Export Plug-In . SVG Version: 6.00 Build 0)  -->
<svg version="1.1" id="Layer_1" xmlns="http://www.w3.org/2000/svg" xmlns:xlink="http://www.w3.org/1999/xlink" x="0px" y="0px"
	 viewBox="0 0 100 100" style="enable-background:new 0 0 100 100;" xml:space="preserve">
<path d="M49.999855,2C23.4908695,2,2,23.4899902,2,50c0,26.5101547,21.4908695,48,47.999855,48C76.5104523,98,98,76.5101547,98,50
	C98,23.4899902,76.5104523,2,49.999855,2z M69.5319366,41.3193359l-0.0134811,0.0067368
	c0.0187531,0.4034195,0.0306168,0.8122559,0.0306168,1.2243195c0,12.4918938-9.5084457,26.8965836-26.8987808,26.8965836
	c-5.333786,0-10.3086891-1.5631409-14.4905262-4.2558136c0.739893,0.0916977,1.4928226,0.1340332,2.2558594,0.1340332
	c4.4317379,0,8.5072269-1.508934,11.7445316-4.0505867c-4.1349602-0.0744133-7.6327133-2.807518-8.83535-6.5576668
	c0.5755348,0.1064949,1.1687965,0.1659698,1.7740707,0.1659698c0.8664551,0,1.7003899-0.115139,2.4905281-0.330616
	c-4.3180656-0.8664551-7.5832043-4.6913109-7.5832043-9.2690926c0-0.0373535,0-0.0812988,0.0065918-0.1135254
	c1.2749996,0.7053223,2.733839,1.132618,4.2810078,1.1799316c-2.531105-1.6935043-4.2005882-4.5826187-4.2005882-7.8667984
	c0-1.7378883,0.4653816-3.3604965,1.2818851-4.7591286c4.6598148,5.7237282,11.6311512,9.4911613,19.4841785,9.8827133
	c-0.158493-0.6934547-0.2440414-1.4104958-0.2440414-2.1581535c0-5.2187996,4.2339859-9.4541016,9.4568863-9.4541016
	c2.7183075,0,5.175148,1.1393547,6.9000015,2.9841805c2.156395-0.4204102,4.1815414-1.2074699,6.0060043-2.2924805
	c-0.7097168,2.2075195-2.2064972,4.059082-4.1597214,5.2322731c1.9157257-0.2286606,3.7349167-0.7356415,5.4319382-1.4901848
	C72.9841309,38.3232918,71.375145,39.9864731,69.5319366,41.3193359z"/>
</svg>
