<?xml version="1.0" encoding="utf-8"?>
<!-- Generator: Adobe Illustrator 23.0.4, SVG Export Plug-In . SVG Version: 6.00 Build 0)  -->
<svg version="1.1" id="Layer_1" xmlns="http://www.w3.org/2000/svg" xmlns:xlink="http://www.w3.org/1999/xlink" x="0px" y="0px"
	 viewBox="0 0 100 100" style="enable-background:new 0 0 100 100;" xml:space="preserve">
<g>
	<polygon points="70.444397,62.2186394 70.444397,38.0237617 58.5286407,50.0170403 	"/>
	<path d="M50.0715218,52.8780785h0.0009575c0.59832,0,1.1443214-0.2052002,1.4978409-0.5613594L68.386879,35.391201H31.8656006
		l16.6936798,16.9154396C48.9171219,52.6678391,49.4696007,52.8764,50.0715218,52.8780785z"/>
	<path d="M53.9227982,54.6531181c-0.9707985,0.978241-2.3745575,1.5396004-3.8503189,1.5396004h-0.0016785
		c-1.4793625,0-2.8898392-0.5663986-3.8680801-1.554718l-2.3056793-2.3359222l-12.039362,12.3067245h36.2872772
		L56.1920013,52.3690414L53.9227982,54.6531181z"/>
	<polygon points="29.5555992,37.7712784 29.5555992,62.2196007 41.5673599,49.9416809 	"/>
	<path d="M50,2C23.4908009,2,2,23.4898396,2,50s21.4908009,48,48,48s48-21.4898376,48-48S76.509201,2,50,2z M73.7587967,67.9253616
		H26.2409592V32.0748787h47.5178375V67.9253616z"/>
</g>
</svg>
