<?xml version="1.0" encoding="utf-8"?>
<!-- Generator: Adobe Illustrator 23.0.4, SVG Export Plug-In . SVG Version: 6.00 Build 0)  -->
<svg version="1.1" id="Layer_1" xmlns="http://www.w3.org/2000/svg" xmlns:xlink="http://www.w3.org/1999/xlink" x="0px" y="0px"
	 viewBox="0 0 100 100" style="enable-background:new 0 0 100 100;" xml:space="preserve">
<g>
	<circle cx="50" cy="49.9997597" r="9.3194399"/>
	<path d="M71.7956009,33.5107994c-0.5073624-1.3048782-1.1133575-2.2360802-2.0915985-3.2143192
		c-0.978241-0.9787197-1.9096832-1.5844803-3.2148056-2.0913601c-0.985199-0.3832798-2.4657593-0.8383198-5.1914368-0.9628792
		C58.3496017,27.1075993,57.4654388,27.0792809,50,27.0792809c-7.4649582,0-8.3493614,0.0283184-11.2975197,0.1629601
		c-2.7256813,0.1245594-4.205761,0.5795994-5.1912003,0.9628792c-1.3051186,0.5068798-2.2365608,1.1126404-3.2147999,2.0913601
		c-0.978241,0.9782391-1.5844803,1.909441-2.0913601,3.2143192c-0.3830395,0.985199-0.8385601,2.4657593-0.9628792,5.1919212
		c-0.1344013,2.9476776-0.1629601,3.8320808-0.1629601,11.297039c0,7.4654388,0.0285587,8.3498421,0.1629601,11.2980003
		c0.1243191,2.7256775,0.5798397,4.2062378,0.9628792,5.1914368c0.5068798,1.3048859,1.1131191,2.236084,2.0913601,3.2145615
		c0.9782391,0.978241,1.9096813,1.5842438,3.2147999,2.0911255c0.9854393,0.3830338,2.465519,0.8383179,5.1912003,0.9628754
		C41.6501617,72.8921585,42.5343208,72.9209595,50,72.9209595c7.4661598,0,8.3498383-0.028801,11.29776-0.1632004
		c2.7256775-0.1245575,4.2062378-0.5798416,5.1914368-0.9628754c1.3051224-0.5068817,2.2365646-1.1128845,3.2148056-2.0911255
		c0.978241-0.9784775,1.5842361-1.9096756,2.0915985-3.2145615c0.3827972-0.985199,0.8383179-2.4657593,0.9624023-5.1916771
		c0.1346359-2.9479179,0.1632004-3.8323212,0.1632004-11.29776c0-7.4649582-0.0285645-8.3493614-0.1632004-11.2975197
		C72.6339188,35.9765587,72.1783981,34.4959984,71.7956009,33.5107994z M50,64.3567963
		c-7.9291191,0-14.3565598-6.4276772-14.3565598-14.3570366c0-7.9288788,6.4274406-14.3568001,14.3565598-14.3568001
		c7.9293594,0,14.3572769,6.4279213,14.3572769,14.3568001C64.3572769,57.9291191,57.9293594,64.3567963,50,64.3567963z
		 M64.9244003,38.4308014c-1.8530388,0-3.3549614-1.5019226-3.3549614-3.3552017
		c0-1.8527985,1.5019226-3.3549595,3.3549614-3.3549595c1.8532791,0,3.3549576,1.502161,3.3549576,3.3549595
		C68.2793579,36.9288788,66.7776794,38.4308014,64.9244003,38.4308014z"/>
	<path d="M50,2C23.4903202,2,2,23.4900799,2,49.9997597C2,76.5099182,23.4903202,98,50,98s48-21.4900818,48-48.0002403
		C98,23.4900799,76.5096817,2,50,2z M77.7903214,61.5269585c-0.1358414,2.9762383-0.6083984,5.0080833-1.2993622,6.7867241
		c-0.7147217,1.8386383-1.670639,3.3976746-3.2248764,4.9519196c-1.554245,1.5544815-3.1135254,2.5106354-4.9519196,3.2246399
		c-1.7784042,0.6914368-3.8109665,1.1640015-6.7867241,1.2995987C58.5454407,77.9259186,57.5931206,77.9580765,50,77.9580765
		c-7.5926399,0-8.5452003-0.0321579-11.5269585-0.1682358c-2.9760017-0.1355972-5.0080833-0.6081619-6.7867222-1.2995987
		c-1.8383999-0.7140045-3.39744-1.6701584-4.9521599-3.2246399c-1.5542393-1.554245-2.5103989-3.1132812-3.2246399-4.9519196
		c-0.6907196-1.7786407-1.1637592-3.8104858-1.2995987-6.7867241c-0.1360817-2.9817581-0.1680012-3.9338379-0.1680012-11.5271988
		c0-7.5928802,0.0319195-8.5447197,0.1680012-11.5267181c0.1358395-2.9760017,0.6088791-5.0080833,1.2995987-6.7869606
		c0.714241-1.8384018,1.6704006-3.3972015,3.2246399-4.9516811c1.5547199-1.5544796,3.11376-2.5103989,4.9521599-3.2251205
		c1.7786388-0.6909599,3.8107204-1.1635189,6.7867222-1.2991199C41.4547997,22.0740795,42.4073601,22.0414391,50,22.0414391
		c7.5931206,0,8.5454407,0.0326405,11.5274391,0.1687202c2.9757576,0.135601,5.0083199,0.60816,6.7867241,1.2991199
		c1.8383942,0.7147217,3.3976746,1.6706409,4.9519196,3.2251205c1.5542374,1.5544796,2.5101547,3.1132793,3.2248764,4.9516811
		c0.6909637,1.7788773,1.1635208,3.8109589,1.2993622,6.7869606c0.136322,2.9819984,0.1682358,3.9338379,0.1682358,11.5267181
		C77.9585571,57.5931206,77.9266434,58.5452003,77.7903214,61.5269585z"/>
</g>
</svg>
